<svg width="85" height="86" viewBox="0 0 85 86" fill="none" xmlns="http://www.w3.org/2000/svg">
<rect width="85" height="86" fill="#1A1A1A"/>
<g id="Login" clip-path="url(#clip0)">
<rect width="1440" height="900" transform="translate(-189 -413)" fill="white"/>
<rect id="wallpaper" x="-189" y="-415" width="720" height="902" fill="#F7FAFC"/>
<g id="undraw_About_us_page_re_2jfm 1" clip-path="url(#clip1)">
<path id="Vector" d="M42.625 85.3146C65.9633 85.3146 84.8826 66.3952 84.8826 43.057C84.8826 19.7187 65.9633 0.799347 42.625 0.799347C19.2868 0.799347 0.367432 19.7187 0.367432 43.057C0.367432 66.3952 19.2868 85.3146 42.625 85.3146Z" fill="#F0F0F0"/>
<path id="Vector_2" d="M29.1054 46.0161L31.1332 53.0406L57.0469 52.5834L56.8198 39.7128C56.6401 29.5253 49.4403 20.7388 39.253 20.9186C29.0657 21.0983 22.5881 29.7108 22.7678 39.8983L24.2477 53.162L28.4728 53.0875L29.1054 46.0161Z" fill="#2F2E41"/>
<path id="Vector_3" d="M40.411 50.928C46.8323 50.928 52.0378 45.7225 52.0378 39.3012C52.0378 32.8799 46.8323 27.6744 40.411 27.6744C33.9897 27.6744 28.7842 32.8799 28.7842 39.3012C28.7842 45.7225 33.9897 50.928 40.411 50.928Z" fill="#FFB6B6"/>
<path id="Vector_4" d="M53.1389 31.1371C53.1235 30.2468 52.8448 29.381 52.3381 28.6489C52.2845 28.5736 52.2307 28.5038 52.1769 28.4339C51.7461 27.8841 51.1941 27.4414 50.5638 27.1402C49.9336 26.8391 49.2423 26.6878 48.5439 26.6981L40.1872 26.8485L31.8358 26.9936C30.6394 27.0176 29.5012 27.5145 28.6703 28.3756C27.8393 29.2368 27.3834 30.392 27.4022 31.5885L29.3907 35.5922L30.5353 37.8924L30.7235 37.7849C37.9515 33.722 40.9073 33.6683 50.4734 37.4463L50.6668 37.5215L51.4246 35.5815L53.1442 31.1801L53.1389 31.1371Z" fill="#2F2E41"/>
<path id="Vector_5" d="M63.5542 57.4327C61.0602 54.9445 52.623 55.9333 52.623 55.9333L30.3529 57.336C25.4137 57.7014 20.9639 61.6568 19.3518 63.2582C19.6095 63.5108 19.8731 63.758 20.1421 63.9945C25.0911 68.3931 31.3122 71.1018 37.9037 71.7279C44.4953 72.3541 51.1151 70.8651 56.8037 67.477C59.1899 66.0528 62.243 64.3453 64.1561 62.3515C64.914 61.5669 65.5204 61.5825 66.1922 60.7226C65.6893 59.3709 64.7643 58.2173 63.5542 57.4327Z" fill="#04C35C"/>
</g>
</g>
<defs>
<clipPath id="clip0">
<rect width="1440" height="900" fill="white" transform="translate(-189 -413)"/>
</clipPath>
<clipPath id="clip1">
<rect width="400" height="330.668" fill="white" transform="translate(-29 -129)"/>
</clipPath>
</defs>
</svg>
