<svg width="86" height="86" viewBox="0 0 86 86" fill="none" xmlns="http://www.w3.org/2000/svg">
<path d="M42.8523 85.3146C66.1905 85.3146 85.1099 66.3952 85.1099 43.057C85.1099 19.7187 66.1905 0.799347 42.8523 0.799347C19.5141 0.799347 0.594727 19.7187 0.594727 43.057C0.594727 66.3952 19.5141 85.3146 42.8523 85.3146Z" fill="#F0F0F0"/>
<path d="M63.3903 61.3718C60.0603 59.6171 56.5845 58.1543 53.0019 57L52.5446 51.9465L34.0175 49.9504L31.663 56.4097L25.0141 58.9048C24.7761 58.9951 24.5494 59.113 24.339 59.2562H24.3318C23.2432 59.3484 22.1949 59.7108 21.2817 60.3105C20.6624 60.7059 20.1117 61.1997 19.6514 61.7725C20.5509 62.4543 21.4853 63.0868 22.4483 63.6913L22.4907 63.7123C22.7649 63.881 23.0461 64.0498 23.3269 64.2114C23.8332 64.5136 24.3533 64.8018 24.8734 65.0759L25.2038 65.2446C25.9627 65.6382 26.736 66.0107 27.5302 66.3551C27.6918 66.4254 27.8678 66.4957 28.0294 66.566C28.0432 66.573 28.0503 66.573 28.0641 66.58C28.437 66.7347 28.8092 66.8822 29.1887 67.0228C30.4355 67.499 31.7073 67.9072 32.9983 68.2458C36.2931 69.1239 39.6884 69.5681 43.0982 69.5672C44.3425 69.5672 45.5725 69.5109 46.7886 69.3914C49.5669 69.135 52.3097 68.5813 54.9698 67.7398C54.9764 67.7398 54.9841 67.7327 54.9907 67.7327C56.6712 67.1974 58.3129 66.5469 59.9039 65.7858C59.9106 65.7788 59.9249 65.7788 59.9321 65.7718C60.2906 65.6031 60.6347 65.4203 60.9861 65.2446L61.1548 65.1602C61.4361 65.0127 61.7174 64.8651 61.9987 64.7104C62.7014 64.3239 63.3903 63.9162 64.0714 63.4804C64.2612 63.368 64.4443 63.2485 64.634 63.122C64.901 62.9462 65.1679 62.7635 65.4282 62.5737C64.7747 62.152 64.0929 61.7514 63.3903 61.3718Z" fill="#04C35C"/>
<path d="M42.5541 46.7555C49.9235 46.7555 55.8976 40.7814 55.8976 33.412C55.8976 26.0426 49.9235 20.0685 42.5541 20.0685C35.1847 20.0685 29.2106 26.0426 29.2106 33.412C29.2106 40.7814 35.1847 46.7555 42.5541 46.7555Z" fill="#A0616A"/>
<path d="M33.5954 26.9126C34.9766 28.5472 37.3143 29.0085 39.4706 29.1976C43.8499 29.5817 50.218 28.9587 54.4977 27.9706C54.8031 30.9311 53.9703 34.1233 55.7141 36.5587C56.5315 33.6103 57.0068 30.5776 57.1306 27.5206C57.2608 26.2089 57.0896 24.8849 56.63 23.6496C56.3842 23.0305 55.9697 22.4928 55.4336 22.0975C54.8975 21.7022 54.2612 21.4653 53.5972 21.4136C54.5913 20.6595 55.7557 20.1616 56.9877 19.9641L52.7509 17.8349L53.8389 16.7179L46.1683 16.2485L48.39 14.8371C45.0462 14.3776 41.6633 14.2708 38.2972 14.5185C36.7341 14.6337 35.0998 14.8537 33.8333 15.7593C32.5668 16.665 31.835 18.465 32.6213 19.7947C31.6369 19.9563 30.7101 20.3666 29.9287 20.9866C29.1473 21.6066 28.5371 22.4159 28.1559 23.3377C27.6739 24.803 27.5576 26.3638 27.817 27.8844C28.106 30.3239 28.6729 32.7225 29.5068 35.0332L33.5954 26.9126Z" fill="#2F2E41"/>
</svg>
