<svg width="86" height="85" viewBox="0 0 86 85" fill="none" xmlns="http://www.w3.org/2000/svg">
<path d="M42.8523 84.6676C66.1905 84.6676 85.1099 65.7483 85.1099 42.4101C85.1099 19.0718 66.1905 0.152466 42.8523 0.152466C19.5141 0.152466 0.594727 19.0718 0.594727 42.4101C0.594727 65.7483 19.5141 84.6676 42.8523 84.6676Z" fill="#F0F0F0"/>
<path d="M52.4111 60.095L51.9506 54.9824L33.1833 52.9607L30.8071 59.5023L24.0694 62.0268C23.8252 62.1172 23.5925 62.2362 23.3763 62.3814C22.0309 62.5033 20.7522 63.0229 19.7031 63.8739C19.8566 64.0009 20.0101 64.1227 20.1636 64.2444C20.1954 64.2761 20.2323 64.3026 20.2641 64.329C20.6928 64.6625 21.1322 64.9906 21.5767 65.3029C21.6932 65.3875 21.8097 65.4722 21.9315 65.5516C22.9072 66.243 23.9176 66.8842 24.9587 67.4728C25.9536 68.0391 26.975 68.5613 28.023 69.0394C29.9479 69.9192 31.9431 70.6362 33.9877 71.1829C34.2735 71.2623 34.5594 71.3364 34.8452 71.4052C35.3427 71.5269 35.8453 71.6434 36.3482 71.7386C37.3643 71.9503 38.3928 72.1162 39.4338 72.2361C40.9633 72.4216 42.5028 72.5135 44.0436 72.5113C45.0969 72.5113 46.1396 72.4707 47.1715 72.3896C48.9845 72.2435 50.7849 71.9694 52.5592 71.5692C52.6227 71.5534 52.6863 71.5428 52.7499 71.5216C55.4673 70.8986 58.1082 69.9793 60.6251 68.7801C61.0115 68.5949 61.3978 68.4043 61.7787 68.2085C62.7157 67.7269 63.6261 67.2082 64.5097 66.6525C64.8273 66.4566 65.1395 66.2555 65.452 66.0438C60.6515 62.8154 53.6813 60.5025 52.4111 60.095Z" fill="#04C35C"/>
<path d="M41.8336 49.723C49.2974 49.723 55.3481 43.6724 55.3481 36.2085C55.3481 28.7447 49.2974 22.694 41.8336 22.694C34.3697 22.694 28.3191 28.7447 28.3191 36.2085C28.3191 43.6724 34.3697 49.723 41.8336 49.723Z" fill="#A0616A"/>
<path d="M32.7626 29.6244C34.1616 31.2801 36.5288 31.747 38.7128 31.9369C43.1484 32.326 49.5977 31.695 53.9324 30.6944C54.2437 33.6926 53.3987 36.9257 55.1643 39.3925C55.9921 36.4064 56.4735 33.3348 56.5989 30.2385C56.7306 28.9101 56.5572 27.5691 56.0919 26.3179C55.8431 25.6909 55.4233 25.1463 54.8803 24.7459C54.3373 24.3456 53.6929 24.1057 53.0203 24.0534C53.1688 23.9004 53.2709 23.7084 53.3147 23.4998C53.3585 23.2911 53.3422 23.0743 53.2677 22.8745C53.1047 22.1691 52.7452 21.5243 52.2309 21.0148C51.7166 20.5052 51.0685 20.1517 50.3617 19.9952L45.4966 18.8227C45.4966 18.8227 40.9315 16.8203 37.521 17.0718C35.9378 17.1884 34.2826 17.4111 33 18.3286C31.7174 19.246 30.9761 21.0689 31.7726 22.4155C30.7757 22.5792 29.8371 22.9948 29.0457 23.6228C28.2543 24.2507 27.6363 25.0703 27.2503 26.004C26.7621 27.488 26.6442 29.069 26.907 30.609C27.1996 33.0798 27.7737 35.509 28.6183 37.8494L32.7626 29.6244Z" fill="#2F2E41"/>
</svg>
