<svg width="86" height="86" viewBox="0 0 86 86" fill="none" xmlns="http://www.w3.org/2000/svg">
<path d="M43.1344 85.3146C66.4727 85.3146 85.392 66.3952 85.392 43.057C85.392 19.7187 66.4727 0.799347 43.1344 0.799347C19.7962 0.799347 0.876831 19.7187 0.876831 43.057C0.876831 66.3952 19.7962 85.3146 43.1344 85.3146Z" fill="#F0F0F0"/>
<path d="M45.4784 20.1774C48.5943 20.1774 51.1203 17.6515 51.1203 14.5356C51.1203 11.4197 48.5943 8.89374 45.4784 8.89374C42.3626 8.89374 39.8366 11.4197 39.8366 14.5356C39.8366 17.6515 42.3626 20.1774 45.4784 20.1774Z" fill="#2F2E41"/>
<path d="M40.5841 17.4709C39.8706 16.8042 39.3424 15.9637 39.0511 15.0317C38.7598 14.0997 38.7154 13.108 38.9221 12.1537C39.1289 11.1993 39.5798 10.315 40.2307 9.5871C40.8816 8.85922 41.7103 8.31272 42.6357 8.00104C41.8606 8.1143 41.1175 8.3878 40.4539 8.80409C39.7903 9.22037 39.2207 9.77032 38.7813 10.4189C38.342 11.0675 38.0426 11.8005 37.9022 12.5711C37.7617 13.3418 37.7834 14.1333 37.9657 14.8951C38.1481 15.657 38.4871 16.3725 38.9612 16.9961C39.4353 17.6197 40.0342 18.1377 40.7196 18.5171C41.4049 18.8965 42.1618 19.1289 42.942 19.1997C43.7222 19.2704 44.5085 19.1779 45.2509 18.9279C44.4134 19.0516 43.5588 18.9848 42.7507 18.7325C41.9426 18.4802 41.2019 18.0488 40.5836 17.4705L40.5841 17.4709Z" fill="#2F2E41"/>
<path d="M45.5923 50.6859C54.7455 50.6859 62.1656 43.2658 62.1656 34.1125C62.1656 24.9593 54.7455 17.5391 45.5923 17.5391C36.439 17.5391 29.0189 24.9593 29.0189 34.1125C29.0189 43.2658 36.439 50.6859 45.5923 50.6859Z" fill="#2F2E41"/>
<path d="M30.8482 24.9874C33.7039 21.7758 37.6957 19.7992 41.9811 19.475C46.2666 19.1507 50.5103 20.504 53.8168 23.2494C53.6817 23.1203 53.5465 22.9906 53.4067 22.8656C50.1327 19.9327 45.8278 18.4204 41.4389 18.6615C37.05 18.9026 32.9366 20.8774 30.0036 24.1513C27.0707 27.4252 25.5585 31.7302 25.7996 36.1191C26.0407 40.508 28.0154 44.6214 31.2893 47.5543C31.3208 47.5825 31.3524 47.6106 31.384 47.6385C31.5246 47.7636 31.6692 47.8818 31.8131 48.0014C28.6994 45.0392 26.8584 40.9832 26.6784 36.6893C26.4985 32.3955 27.9938 28.1997 30.8488 24.9874H30.8482Z" fill="#2F2E41"/>
<path d="M45.4518 50.5454C51.3469 50.5454 56.1259 45.7664 56.1259 39.8713C56.1259 33.9761 51.3469 29.1971 45.4518 29.1971C39.5566 29.1971 34.7776 33.9761 34.7776 39.8713C34.7776 45.7664 39.5566 50.5454 45.4518 50.5454Z" fill="#A0616A"/>
<path d="M64.5527 67.6827V71.2642C63.8971 71.6832 63.2348 72.0751 62.5591 72.4468C62.2889 72.5954 62.0186 72.7374 61.7484 72.8793L61.5861 72.9604C61.2482 73.1293 60.9169 73.305 60.5725 73.4671C60.5659 73.4739 60.552 73.4739 60.5454 73.4806C59.0157 74.2124 57.4374 74.8378 55.8218 75.3525C55.8152 75.3525 55.8086 75.3593 55.8017 75.3593C53.244 76.1683 50.607 76.7007 47.9358 76.9472C46.7668 77.0621 45.5843 77.1162 44.3882 77.1162C41.1099 77.1171 37.8456 76.69 34.6779 75.8458C33.0619 75.4209 31.477 74.8858 29.9341 74.2442C29.9206 74.2375 29.9137 74.2375 29.9002 74.2308C29.7448 74.1632 29.5758 74.0956 29.4204 74.028C28.6569 73.6969 27.9135 73.3388 27.1836 72.9604L26.8662 72.7982C26.0888 72.3859 25.3253 71.9535 24.5753 71.4872L24.5348 71.4669C23.3798 70.7473 22.2654 69.9645 21.1966 69.1221C20.6492 68.7032 20.1223 68.2639 19.6085 67.8044C19.3383 67.5746 19.068 67.3314 18.8113 67.0949C17.824 66.183 16.8878 65.2175 16.0067 64.2027C16.1236 63.4988 16.2953 62.8052 16.5204 62.1281L16.527 62.1213C16.5675 62.006 16.6149 61.8931 16.6689 61.7835C16.7062 61.6865 16.7491 61.5917 16.7973 61.4997C18.0069 59.2359 20.1965 58.6751 22.913 58.5534C24.447 58.4858 26.1429 58.5602 27.9339 58.5399C28.8799 58.5331 29.8596 58.4994 30.8395 58.4115C37.0225 57.8507 35.901 54.2016 36.1779 52.2352C36.455 50.3296 38.1715 51.9784 38.2863 52.0865L38.2929 52.0933C41.7919 53.7308 45.663 54.4094 49.5104 54.0597C50.1726 53.9786 50.8348 53.9313 51.4971 53.9111C53.2406 53.8908 52.8621 54.3908 52.2609 54.803C51.969 54.9951 51.6642 55.1667 51.3486 55.3166C51.3486 55.3166 51.0715 57.006 50.7877 59.5333C50.5175 61.9524 59.0385 62.7904 60.7078 63.3174H60.7144C61.6671 63.6678 62.5173 64.2506 63.1876 65.013C63.8579 65.7753 64.3271 66.693 64.5527 67.6827Z" fill="#04C35C"/>
<path d="M56.9833 31.7028C56.5732 30.3894 55.659 29.2923 54.4411 28.6521C53.2327 28.025 51.9419 27.5712 50.6069 27.3042C48.2731 26.6327 45.8546 26.3016 43.4262 26.3214C41.0044 26.4404 38.5287 27.2762 36.8833 29.0573C35.238 30.8383 34.6281 33.6661 35.8265 35.7738L35.6939 36.3187C37.6151 36.5472 39.5613 36.2138 41.2969 35.359C43.0325 34.5041 44.483 33.1644 45.4728 31.5021C46.3811 32.9366 47.6712 34.0895 49.1984 34.8315C50.7255 35.5735 52.4292 35.8752 54.1183 35.7027C54.6574 35.6592 55.1824 35.5082 55.6622 35.2586C56.2313 34.8829 56.6661 34.3358 56.9036 33.6965C57.1412 33.0573 57.1691 32.359 56.9833 31.7028Z" fill="#2F2E41"/>
</svg>
