<svg width="86" height="85" viewBox="0 0 86 85" fill="none" xmlns="http://www.w3.org/2000/svg">
<path d="M43.1344 84.6676C66.4727 84.6676 85.392 65.7483 85.392 42.4101C85.392 19.0718 66.4727 0.152466 43.1344 0.152466C19.7962 0.152466 0.876831 19.0718 0.876831 42.4101C0.876831 65.7483 19.7962 84.6676 43.1344 84.6676Z" fill="#F0F0F0"/>
<path d="M59.2014 61.7359L52.1681 61.0965L47.9595 58.0228C47.9598 58.0169 47.9579 58.0112 47.9542 58.0066L47.9433 58.0119L47.7749 57.8871L47.7532 58.0826L40.6501 60.8141L33.3516 59.1307L30.8266 61.8622L19.5801 65.5929C19.039 65.9531 18.5633 66.403 18.1736 66.9232L18.1743 66.9304C18.6465 67.3 19.1319 67.6642 19.6233 68.0094C20.7381 68.815 21.8966 69.5583 23.0935 70.2359C26.0056 71.8968 29.1193 73.1762 32.3578 74.0427C32.6511 74.1241 32.9444 74.2001 33.2376 74.2707C33.748 74.3957 34.2638 74.5151 34.7798 74.6128C35.8224 74.8301 36.8777 75.0002 37.9458 75.1233C39.5152 75.3137 41.0948 75.408 42.6757 75.4057C43.7565 75.4057 44.8263 75.3641 45.8851 75.2808C47.7453 75.131 49.5927 74.8497 51.4132 74.4391C51.4784 74.4228 51.5436 74.4119 51.6088 74.3902C54.3971 73.751 57.1068 72.8077 59.6893 71.5773C60.0857 71.3872 60.4821 71.1917 60.8729 70.9908C61.8344 70.4966 62.7684 69.9644 63.6751 69.3942C64.3595 68.9707 65.0274 68.5199 65.6789 68.0529C66.0809 67.7651 66.4773 67.4718 66.8681 67.1677L66.8259 67.0778C66.1319 65.5994 65.0629 64.3284 63.7253 63.3912C62.3876 62.454 60.828 61.8833 59.2014 61.7359Z" fill="#04C35C"/>
<path d="M52.4831 26.6349C51.6624 25.8218 50.7365 25.1223 49.73 24.555C43.512 21.123 36.7187 21.0633 31.0925 24.3867C29.6939 25.2108 28.4165 26.2251 27.2968 27.4006C24.1401 30.6951 22.3725 35.0781 22.3604 39.6408V53.1735H57.7561V38.2561C57.7561 34.2592 55.5569 29.6325 52.4831 26.6349Z" fill="#2F2E41"/>
<path d="M39.3587 52.804C46.419 52.804 52.1425 47.0805 52.1425 40.0202C52.1425 32.9599 46.419 27.2365 39.3587 27.2365C32.2985 27.2365 26.575 32.9599 26.575 40.0202C26.575 47.0805 32.2985 52.804 39.3587 52.804Z" fill="#FFB8B8"/>
<path d="M52.4722 28.4161C52.4459 28.1441 52.3496 27.8835 52.1925 27.6598C52.0355 27.4362 51.8232 27.2571 51.5762 27.14C43.5772 23.4038 35.4642 23.5016 27.4758 27.4332H27.3294L27.2803 27.6342C25.7056 39.7657 25.9283 40.0318 26.0259 40.1404C26.18 40.3159 26.3711 40.4549 26.5854 40.5477C26.7821 40.6344 26.9948 40.6789 27.2098 40.678H45.4453L45.4888 40.4717C45.7004 39.3858 45.9723 38.3125 46.3033 37.2569C47.03 38.3169 47.6989 39.4155 48.3071 40.5477L48.3829 40.678H51.9292C51.9965 40.678 52.0637 40.6725 52.1302 40.6617C52.4964 40.6177 52.8341 40.4421 53.0805 40.1676C53.1781 40.0644 53.4061 39.8146 52.4722 28.4161Z" fill="#2F2E41"/>
</svg>
