<svg width="85" height="85" viewBox="0 0 85 85" fill="none" xmlns="http://www.w3.org/2000/svg">
<path d="M42.625 84.6676C65.9633 84.6676 84.8826 65.7483 84.8826 42.4101C84.8826 19.0718 65.9633 0.152466 42.625 0.152466C19.2868 0.152466 0.367432 19.0718 0.367432 42.4101C0.367432 65.7483 19.2868 84.6676 42.625 84.6676Z" fill="#F0F0F0"/>
<path d="M41.9333 48.4716C48.3853 48.4716 53.6157 43.2412 53.6157 36.7892C53.6157 30.3371 48.3853 25.1068 41.9333 25.1068C35.4813 25.1068 30.2509 30.3371 30.2509 36.7892C30.2509 43.2412 35.4813 48.4716 41.9333 48.4716Z" fill="#FFB8B8"/>
<path d="M30.881 40.4442C30.881 40.4442 31.8736 38.7011 31.6428 32.8779C31.4121 27.0547 40.2794 30.3482 47.689 29.7927C55.0986 29.2372 53.5301 39.5147 53.5301 39.5147C53.5301 39.5147 54.0647 38.9038 55.2092 33.9435C56.3536 28.9833 53.755 24.0403 53.755 24.0403C52.9897 18.828 48.8652 20.4985 48.8652 20.4985C50.8515 21.2718 50.47 22.9252 50.47 22.9252C48.7886 19.9773 44.6641 21.6479 44.6641 21.6479C39.1631 18.1959 33.588 22.7417 33.588 22.7417C26.9425 24.2499 30.8398 29.5348 30.8398 29.5348C24.1567 32.9121 30.881 40.4442 30.881 40.4442Z" fill="#2F2E41"/>
<path d="M61.4264 64.2072C58.0965 62.4525 54.6207 60.9898 51.038 59.8355L50.5808 54.7819L32.0537 52.7859L29.6991 59.2451L23.0502 61.7403C22.8122 61.8305 22.5856 61.9484 22.3751 62.0916H22.368C21.2794 62.1838 20.231 62.5462 19.3179 63.1459C18.6985 63.5413 18.1478 64.0351 17.6875 64.6079C18.5871 65.2897 19.5214 65.9222 20.4844 66.5267L20.5269 66.5477C20.801 66.7164 21.0823 66.8852 21.363 67.0468C21.8694 67.349 22.3895 67.6372 22.9096 67.9113L23.24 68.08C23.9989 68.4736 24.7722 68.8461 25.5664 69.1905C25.728 69.2608 25.9039 69.3311 26.0655 69.4014C26.0793 69.4084 26.0865 69.4084 26.1003 69.4155C26.4731 69.5701 26.8454 69.7176 27.2249 69.8582C28.4717 70.3344 29.7434 70.7426 31.0344 71.0812C34.3292 71.9593 37.7246 72.4035 41.1344 72.4026C42.3787 72.4026 43.6086 72.3463 44.8248 72.2268C47.6031 71.9704 50.3458 71.4167 53.0059 70.5751C53.0125 70.5751 53.0203 70.5681 53.0269 70.5681C54.7074 70.0328 56.349 69.3823 57.9401 68.6212C57.9467 68.6142 57.961 68.6142 57.9682 68.6071C58.3267 68.4384 58.6709 68.2557 59.0222 68.08L59.191 67.9956C59.4723 67.8481 59.7536 67.7005 60.0349 67.5459C60.7375 67.1593 61.4264 66.7516 62.1076 66.3158C62.2973 66.2034 62.4804 66.0839 62.6702 65.9574C62.9371 65.7817 63.204 65.599 63.4644 65.4092C62.8108 64.9874 62.1291 64.5868 61.4264 64.2072Z" fill="#04C35C"/>
</svg>
